<?xml version="1.0" encoding="utf-8"?>
<!-- Generator: Adobe Illustrator 24.1.2, SVG Export Plug-In . SVG Version: 6.00 Build 0)  -->
<svg version="1.1" id="Layer_1" xmlns="http://www.w3.org/2000/svg" xmlns:xlink="http://www.w3.org/1999/xlink" x="0px" y="0px"
	 viewBox="0 0 240 234" style="enable-background:new 0 0 240 234;" xml:space="preserve">
<style type="text/css">
	.st0{fill:#B30B00;}
	.st1{fill:#FFFFFF;}
</style>
<g id="Surfaces">
	<path id="XMLID_1_" class="st0" d="M42.5,0h155C221,0,240,19,240,42.5v149c0,23.5-19,42.5-42.5,42.5h-155C19,234,0,215,0,191.5
		v-149C0,19,19,0,42.5,0z"/>
</g>
<g id="Outlined_Mnemonics_Logos">
	<path id="_256" class="st1" d="M193,135.5c-4.8-5.1-13.9-7.7-27.1-7.7c-7.3,0.1-14.7,0.7-21.9,1.9c-4.6-4.5-8.9-9.4-12.6-14.7
		c-2.9-3.9-5.5-8-7.9-12.3c4.7-14.7,7-26.5,7-35.4c0-10.8-4.3-22.4-16.3-22.4c-4.2,0.1-8,2.4-10.1,5.9c-5.1,8.8-3.1,27,5.1,45.4
		c-2.9,8.5-6,16.7-9.8,25.9c-3.3,7.8-6.9,15.5-11,22.9c-12.3,4.9-38.4,16.9-40.9,30.2c-0.8,3.9,0.6,7.9,3.6,10.6
		c2.9,2.6,6.7,3.9,10.6,3.8c15.7,0,31.4-21.8,42-40.5c6-2,12.1-3.9,18.2-5.5c6.7-1.8,13.1-3.2,19.2-4.3
		c16.6,14.5,31.4,16.7,38.9,16.7c10.2,0,14-4.4,15.4-8.1C196.9,143.7,196,138.9,193,135.5z M182.1,143.1c-0.6,2.9-3.5,4.8-7.6,4.8
		c-1.2,0-2.3-0.1-3.4-0.4c-7.5-1.8-14.7-5.4-21.8-11c5.3-0.8,10.7-1.2,16.2-1.2c3.6-0.1,7.2,0.2,10.8,0.8
		C179.4,136.6,183,138.4,182.1,143.1z M110.5,54.6c0.7-1.3,2-2.2,3.5-2.2c3.8,0,4.6,4.6,4.6,8.4c0,6.1-1.8,15.9-5,26.7
		C107.3,70.5,108.2,58.7,110.5,54.6z M119.6,134.9c-3.3,0.9-6.6,1.8-9.9,2.8c1.8-3.6,3.4-7.1,4.8-10.5c1.8-4.5,3.6-8.9,5.2-13.3
		c1.4,2.2,2.8,4.3,4.3,6.4c2.9,4,5.9,7.8,9.2,11.4C133.2,131.6,124.1,133.7,119.6,134.9z M84.5,154.9c-10.1,16.2-20,26.4-25.8,26.4
		c-0.9,0-1.9-0.3-2.6-0.9c-1.1-0.9-1.6-2.3-1.3-3.7C56,170.9,67.4,162.5,84.5,154.9z"/>
</g>
</svg>
