<?xml version="1.0" encoding="utf-8"?>
<!-- Generator: Adobe Illustrator 24.1.0, SVG Export Plug-In . SVG Version: 6.00 Build 0)  -->
<svg version="1.1" id="Layer_1" xmlns="http://www.w3.org/2000/svg" xmlns:xlink="http://www.w3.org/1999/xlink" x="0px" y="0px"
	 viewBox="0 0 240 234" style="enable-background:new 0 0 240 234;" xml:space="preserve">
<style type="text/css">
	.st0{fill:#00005B;}
	.st1{fill:#9999FF;}
</style>
<g id="Layer_2_1_">
	<g id="Surfaces">
		<g id="Video_Audio_Surface">
			<g id="Outline_no_shadow">
				<path class="st0" d="M42.5,0h155C221,0,240,19,240,42.5v149c0,23.5-19,42.5-42.5,42.5h-155C19,234,0,215,0,191.5v-149
					C0,19,19,0,42.5,0z"/>
			</g>
		</g>
	</g>
	<g id="Outlined_Mnemonics_Logos">
		<g id="An">
			<path class="st1" d="M97,140H59.9l-7.6,23.5c-0.2,0.9-1,1.5-1.9,1.4H31.4c-1.1,0-1.4-0.6-1.1-1.8l32.3-92.3c0.3-1,0.6-1.8,1-3.1
				c0.4-2.1,0.6-4.3,0.6-6.5c-0.1-0.5,0.3-1,0.8-1.1c0.1,0,0.2,0,0.3,0H91c0.8,0,1.2,0.3,1.3,0.8l36.4,102.3c0.3,1.1,0,1.6-1,1.6
				h-20.9c-0.7,0.1-1.4-0.4-1.6-1.1L97,140z M65.7,120.1h25.4c-0.6-2.1-1.4-4.6-2.3-7.2c-0.9-2.7-1.8-5.6-2.7-8.6
				c-1-3.1-1.9-6.1-2.9-9.2c-1-3.1-1.9-6-2.7-8.9c-0.8-2.8-1.5-5.4-2.2-7.8h-0.2c-0.9,4.3-2,8.6-3.4,12.9c-1.5,4.8-3,9.8-4.6,14.8
				C68.7,111.2,67.2,115.9,65.7,120.1z"/>
			<path class="st1" d="M140,163.4V104c0-1.8,0-3.9-0.1-6.1c-0.1-2.3-0.1-4.4-0.2-6.4c-0.1-2-0.2-3.9-0.3-5.1
				c-0.1-0.3-0.1-0.7,0.2-1c0.3-0.2,0.6-0.3,1-0.3h16.1c0.6,0,1.1,0.1,1.6,0.3c0.4,0.2,0.7,0.6,0.8,1.1c0.2,0.6,0.5,1.4,0.7,2.2
				c0.3,1.1,0.5,2.2,0.6,3.3c3.1-2.7,6.7-4.8,10.6-6.2c3.9-1.3,8-2,12.1-2c3.2,0,6.4,0.5,9.4,1.5c7.1,2.3,12.7,7.8,15.2,14.8
				c1.6,4.1,2.2,9.5,2.2,16v47.3c0,1-0.4,1.4-1.3,1.4l-18.8,0.2c-0.8,0.1-1.5-0.4-1.6-1.2c0-0.1,0-0.3,0-0.4v-44.8
				c-0.1-3-0.7-6-1.9-8.7c-0.9-2-2.3-3.8-4.1-5c-2.1-1.3-4.4-1.9-6.8-1.8c-2.6,0-5.2,0.4-7.6,1.4c-2.2,0.9-4.2,2.2-6,3.8v55.2
				c0,1-0.4,1.4-1.3,1.4h-19c-0.7,0.1-1.3-0.4-1.4-1.1C139.9,163.6,139.9,163.5,140,163.4z"/>
		</g>
	</g>
</g>
</svg>
