<?xml version="1.0" encoding="utf-8"?>
<!-- Generator: Adobe Illustrator 24.1.0, SVG Export Plug-In . SVG Version: 6.00 Build 0)  -->
<svg version="1.1" id="Layer_1" xmlns="http://www.w3.org/2000/svg" xmlns:xlink="http://www.w3.org/1999/xlink" x="0px" y="0px"
	 viewBox="0 0 240 234" style="enable-background:new 0 0 240 234;" xml:space="preserve">
<style type="text/css">
	.st0{fill:#00005B;}
	.st1{fill:#9999FF;}
</style>
<path class="st0" d="M42.5,0h155C221,0,240,19,240,42.5v149c0,23.5-19,42.5-42.5,42.5h-155C19,234,0,215,0,191.5v-149
	C0,19,19,0,42.5,0z"/>
<path class="st1" d="M94.3,140H57.1l-7.6,23.6c-0.2,0.9-1,1.5-1.9,1.4H28.8c-1.1,0-1.4-0.6-1.1-1.8l32.2-92.4c0.3-1,0.6-2.1,1-3.3
	c0.5-2.1,0.8-4.2,0.8-6.4c-0.1-0.5,0.3-1,0.8-1.1c0.1,0,0.2,0,0.3,0h25.6c0.7,0,1.2,0.3,1.3,0.8L126,163.4c0.3,1.1,0,1.6-1,1.6
	h-20.9c-0.7,0.1-1.4-0.4-1.6-1.1L94.3,140z M62.9,120.1h25.4c-0.6-2.1-1.4-4.6-2.3-7.2c-0.9-2.7-1.8-5.6-2.7-8.6
	c-1-3.1-1.9-6.1-2.9-9.2c-1-3.1-1.9-6-2.7-8.9c-0.8-2.8-1.5-5.4-2.2-7.8h-0.2c-0.9,4.3-2,8.6-3.4,12.9c-1.5,4.8-3,9.8-4.6,14.8
	C66,111.2,64.4,115.9,62.9,120.1L62.9,120.1z"/>
<path class="st1" d="M202.8,86.2v61.3c0,2.7,0,5.1,0.1,7.2c0.1,2.1,0.2,3.9,0.3,5.5c0.2,1.6,0.3,2.5,0.4,3.6
	c0.1,0.9-0.3,1.3-1.1,1.3h-17.2c-0.8,0.1-1.6-0.4-1.9-1.1c-0.2-0.8-0.4-1.7-0.6-2.5c-0.2-0.7-0.2-1.4-0.2-2.1
	c-3.2,2.9-7.1,5-11.3,6.2c-3.6,1-7.4,1.5-11.1,1.5c-3.7,0-7.4-0.5-10.9-1.7c-3.2-1.1-6.2-3-8.5-5.5c-2.6-2.8-4.5-6.1-5.6-9.7
	c-1.4-4.6-2.1-9.4-2-14.2V86.4c-0.1-0.6,0.3-1.2,1-1.3c0.1,0,0.2,0,0.3,0h19.1c0.6-0.1,1.2,0.3,1.3,1c0,0.1,0,0.2,0,0.3v47
	c0,4.4,1,7.9,2.9,10.4c1.9,2.5,5.8,3.8,10.3,3.8c2.3,0,4.6-0.4,6.8-1.2c2.3-0.8,4.4-1.9,6.3-3.3V86.2c0-0.7,0.5-1.1,1.4-1.1h19.1
	c0.5-0.1,1.1,0.3,1.1,0.8C202.8,86,202.8,86.1,202.8,86.2z"/>
</svg>
