<?xml version="1.0" encoding="utf-8"?>
<!-- Generator: Adobe Illustrator 24.1.0, SVG Export Plug-In . SVG Version: 6.00 Build 0)  -->
<svg version="1.1" id="Layer_1" xmlns="http://www.w3.org/2000/svg" xmlns:xlink="http://www.w3.org/1999/xlink" x="0px" y="0px"
	 viewBox="0 0 240 234" style="enable-background:new 0 0 240 234;" xml:space="preserve">
<style type="text/css">
	.st0{fill:#000B1D;}
	.st1{fill:#FFFFFF;}
</style>
<path class="st0" d="M42.5,0h155C221,0,240,19,240,42.5v149c0,23.5-19,42.5-42.5,42.5h-155C19,234,0,215,0,191.5v-149
	C0,19,19,0,42.5,0z"/>
<path class="st1" d="M117.9,145.3v16.6c0.1,1-0.4,1.9-1.3,2.3c-3.2,1.1-6.4,1.8-9.7,2.2c-4.1,0.5-8.3,0.7-12.5,0.7
	c-6,0-12-0.7-17.8-2.2c-5.4-1.4-10.6-3.6-15.4-6.6c-4.6-2.9-8.6-6.6-11.9-10.9c-3.4-4.5-6.1-9.6-7.7-15c-1.9-6.3-2.7-12.9-2.6-19.5
	c0-10.8,2.2-20.2,6.9-28.4c4.7-8.2,11.7-14.9,20.1-19.2c8.7-4.6,19.3-7.1,31.4-7.1c4.2,0,8.3,0.2,12.5,0.6c2.8,0.4,5.6,1,8.2,2.1
	c0.6,0.5,0.9,1.2,0.8,1.9l0,17.9c0,1-0.4,1.3-1.1,1c-3-1.4-6.2-2.3-9.5-2.8c-3.9-0.6-7.8-0.9-11.8-0.9c-7.2,0-13.4,1.4-18.5,4.3
	c-5,2.8-9.2,6.9-11.9,12c-2.9,5.6-4.3,11.8-4.2,18.1c-0.1,4.5,0.6,8.9,2,13.2c1.2,3.6,3.1,6.9,5.6,9.8c2.2,2.7,5,4.9,8,6.6
	c3,1.7,6.2,3,9.6,3.8c3.2,0.8,6.6,1.2,9.9,1.2c3.6,0,7.2-0.1,10.7-0.5c3-0.4,6-1.1,8.9-2.1c0.4-0.3,0.7-0.4,1-0.2
	C117.9,144.5,118,144.9,117.9,145.3z"/>
<path class="st1" d="M163.6,84.1c7.9,0,14.4,1.4,19.2,4.3c4.9,2.9,8.2,6.2,10.5,11.1c2.4,5.2,3.6,10.9,3.5,16.6v31.1
	c0,2,0,4,0.1,5.8c0.1,1.8,0.1,3.7,0.2,5.6c0,0.4-0.1,0.7-0.3,0.8c-4.8,1.8-8.8,3.6-12.6,4.7c-3.6,1-7.2,1.8-10.9,2.3
	c-3.7,0.4-7.5,0.7-11.3,0.6c-5.6,0.1-11.1-0.9-16.3-2.9c-4.8-1.8-9.1-4.8-12.3-8.9c-3-4-4.5-9-4.5-15.1c0-5.8,1.6-10.6,4.7-14.5
	c3.2-3.9,7.9-6.8,13.4-8.7c6.1-2,12.4-3,18.8-2.9h5.9c1.2,0,2.4,0,3.6,0.2v-1c-0.1-1-0.2-1.9-0.6-2.8c-0.4-1.3-1.2-2.5-2.2-3.5
	c-1.3-1.4-2.8-2.4-4.6-3.1c-2.6-0.8-5.3-1.1-8-1c-3.9,0-7.8,0.3-11.6,1.1c-3.5,0.8-7.1,2.8-10.1,4c-0.3,0.1-0.7,0.1-1,0
	c-0.3-0.1-0.5-0.5-0.5-0.8V90.4c-0.1-0.8,0.4-1.5,1.1-1.8c3.5-1.6,7.8-2.5,12.3-3.3C154.8,84.5,159.2,84.1,163.6,84.1z M175.2,147.7
	v-16.1c-1.3-0.2-2.1-0.4-3.3-0.5c-1.2-0.1-2.6-0.2-4.3-0.2c-5.8,0-9.7,0.9-12.1,2.6c-2.4,1.7-3.6,3.6-3.6,6.6c0,1.5,0.5,3,1.4,4.2
	c1.1,1.7,2.7,3.1,4.5,3.9c2.1,0.9,4.5,0.9,7.7,0.9c1.8,0,3.7-0.1,5.5-0.4C172.3,148.5,173.8,148.2,175.2,147.7L175.2,147.7z"/>
</svg>
