<svg id="production" xmlns="http://www.w3.org/2000/svg" width="32" height="32" viewBox="0 0 32 32">
  <defs>
    <style>
      .cls-1 {
        fill: #4b4b4b;
      }
    </style>
  </defs>
  <title>Artboard 68</title>
  <path class="cls-1" d="M17.99316,30.06445a1.98415,1.98415,0,0,1-1.48828-.67383L10.82422,23H5.05957A5.0659,5.0659,0,0,1,0,17.93945V7.05957A5.06506,5.06506,0,0,1,5.05957,2H26.93994A5.06548,5.06548,0,0,1,32,7.05957V17.93945A5.06632,5.06632,0,0,1,26.93994,23H20v5.0625a1.98517,1.98517,0,0,1-1.28955,1.86914A2.00829,2.00829,0,0,1,17.99316,30.06445ZM5.05957,4A3.06278,3.06278,0,0,0,2,7.05957V17.93945A3.06361,3.06361,0,0,0,5.05957,21h6.21387a.99954.99954,0,0,1,.74756.33594L18,28.0625V22a.99974.99974,0,0,1,1-1h7.93994A3.06372,3.06372,0,0,0,30,17.93945V7.05957A3.06288,3.06288,0,0,0,26.93994,4Z"/>
  <g>
    <circle class="cls-1" cx="9.70414" cy="12.5" r="2.09862"/>
    <circle class="cls-1" cx="16" cy="12.5" r="2.09862"/>
    <circle class="cls-1" cx="22.29586" cy="12.5" r="2.09862"/>
  </g>
</svg>
