<svg xmlns="http://www.w3.org/2000/svg" width="26.569" height="20.224" viewBox="0 0 26.569 20.224"><g transform="translate(-379.536 -329.251)"><path d="M405.38,338.59h-4.717a.727.727,0,0,0-.727.725h0v9.433a.726.726,0,0,0,.726.726h4.717a.726.726,0,0,0,.726-.726v-9.433A.727.727,0,0,0,405.38,338.59Zm-2.359.2a.507.507,0,1,1-.508.508h0A.507.507,0,0,1,403.021,338.789Zm1.7,9.3h-3.4l.019-8.119h3.4Z" fill="#b3b3b3"/><path d="M384.072,338.371l-3.152-.008v-7.737l11.211.016v1.8h1.383v-2.75a.437.437,0,0,0-.437-.437h-13.1a.437.437,0,0,0-.437.437V339.3a.451.451,0,0,0,.437.453h4.1Zm-3.846-3.492a.5.5,0,1,1,.5-.5.5.5,0,0,1-.5.5Z" fill="#b3b3b3"/><path d="M398.459,344.885l-11.642-.02v-9.681H401.57v1.929h1.383v-2.852a.461.461,0,0,0-.461-.461h-16.6a.461.461,0,0,0-.461.461v11.526a.461.461,0,0,0,.461.461h6.454v1.383a.461.461,0,0,1-.461.461h-1.383a.452.452,0,0,0-.461.443h0v.71a.23.23,0,0,0,.231.23h7.837a.23.23,0,0,0,.231-.23v-.692a.462.462,0,0,0-.461-.461H396.5a.461.461,0,0,1-.461-.461v-1.383l2.421.02Z" fill="#b3b3b3"/></g></svg>