<?xml version="1.0" encoding="utf-8"?>
<!-- Generator: Adobe Illustrator 24.1.0, SVG Export Plug-In . SVG Version: 6.00 Build 0)  -->
<svg version="1.1" id="Layer_1" xmlns="http://www.w3.org/2000/svg" xmlns:xlink="http://www.w3.org/1999/xlink" x="0px" y="0px"
	 viewBox="0 0 256 256" style="enable-background:new 0 0 256 256;" xml:space="preserve">
<style type="text/css">
	.st0{fill:#49021F;}
	.st1{fill:#FF3366;}
</style>
<g id="Surfaces">
	<g id="Publishing_Surface">
		<g id="Outline_no_shadow">
			<path class="st0" d="M50.5,4h155C229,4,248,23,248,46.5v149c0,23.5-19,42.5-42.5,42.5h-155C27,238,8,219,8,195.5v-149
				C8,23,27,4,50.5,4z"/>
		</g>
	</g>
</g>
<g id="Outlined_Mnemonics_Logos">
	<g id="Id">
		<path class="st1" d="M95.2,65.2v102.6c0,1.1-0.5,1.6-1.4,1.6H74.2c-0.9,0-1.3-0.5-1.3-1.6V65.2c0-0.9,0.5-1.3,1.4-1.3h19.5
			c0.6-0.1,1.2,0.3,1.3,1C95.2,65,95.2,65.1,95.2,65.2z"/>
		<path class="st1" d="M152.8,171c-7.4,0.1-14.8-1.4-21.5-4.5c-6.3-2.9-11.5-7.7-15.1-13.6c-3.7-6.1-5.5-13.7-5.5-22.8
			c-0.1-7.4,1.8-14.7,5.5-21.1c3.8-6.5,9.3-11.9,15.9-15.5c7-3.9,15.4-5.8,25.3-5.8c0.5,0,1.2,0,2.1,0.1c0.9,0.1,1.9,0.1,3.1,0.2
			V56.4c0-0.7,0.3-1.1,1-1.1h20.3c0.5-0.1,0.9,0.3,1,0.7c0,0.1,0,0.2,0,0.2v95.2c0,1.8,0.1,3.8,0.2,6c0.2,2.1,0.3,4.1,0.4,5.8
			c0,0.7-0.3,1.3-1,1.6c-5.2,2.2-10.7,3.8-16.3,4.8C163.2,170.5,158,171,152.8,171z M162.6,151v-44c-0.9-0.2-1.8-0.4-2.7-0.5
			c-1.1-0.1-2.2-0.2-3.3-0.2c-3.9,0-7.8,0.8-11.3,2.6c-3.4,1.7-6.3,4.2-8.5,7.4c-2.2,3.2-3.3,7.5-3.3,12.7c-0.1,3.5,0.5,7,1.7,10.3
			c1,2.7,2.5,5.1,4.5,7.1c1.9,1.8,4.2,3.2,6.8,4c2.7,0.9,5.5,1.3,8.3,1.3c1.5,0,2.9-0.1,4.2-0.2C160.3,151.6,161.5,151.4,162.6,151z
			"/>
	</g>
</g>
</svg>
