<?xml version="1.0" encoding="utf-8"?>
<!-- Generator: Adobe Illustrator 24.1.0, SVG Export Plug-In . SVG Version: 6.00 Build 0)  -->
<svg version="1.1" id="Layer_1" xmlns="http://www.w3.org/2000/svg" xmlns:xlink="http://www.w3.org/1999/xlink" x="0px" y="0px"
	 viewBox="0 0 240 234" style="enable-background:new 0 0 240 234;" xml:space="preserve">
<style type="text/css">
	.st0{fill:#001E36;}
	.st1{fill:#31A8FF;}
</style>
<g id="Layer_2_1_">
	<g id="Surfaces">
		<g id="Photo_Surface">
			<g id="Outline_no_shadow">
				<path class="st0" d="M42.5,0h155C221,0,240,19,240,42.5v149c0,23.5-19,42.5-42.5,42.5h-155C19,234,0,215,0,191.5v-149
					C0,19,19,0,42.5,0z"/>
			</g>
		</g>
	</g>
	<g id="Outlined_Mnemonics_Logos">
		<g id="LrC">
			<path class="st1" d="M84.2,165.4H27.1c-1,0-1.4-0.6-1.4-1.8V61.4c0-1,0.4-1.4,1.3-1.4h17.7c0.7,0,1,0.4,1,1.1v84h41.6
				c0.9,0,1.2,0.5,1,1.4l-2.6,17.4c-0.1,0.6-0.3,1-0.6,1.2C84.8,165.3,84.5,165.4,84.2,165.4z"/>
			<path class="st1" d="M98.5,85.4h15.8c0.9,0,1.5,0.5,1.9,1.6c0.3,0.7,0.6,1.5,0.7,2.3c0.2,1,0.3,2.1,0.4,3.1
				c0.1,1.1,0.1,2.3,0.1,3.6c2.6-3.4,5.9-6.4,9.6-8.6c4-2.4,8.7-3.7,13.4-3.6c0.9,0,1.3,0.5,1.3,1.4v19.5c0,0.8-0.5,1.1-1.4,1.1
				c-3.2-0.2-6.4,0-9.5,0.7c-2.6,0.6-5.1,1.5-7.5,2.7c-1.8,0.9-3.5,2.2-4.9,3.7v51c0,1-0.4,1.4-1.2,1.4H99.8c-1,0-1.4-0.5-1.4-1.6
				v-55.4c0-2.4,0-4.9-0.1-7.5c0-2.6-0.1-5.2-0.2-7.8c-0.1-2.2-0.3-4.4-0.6-6.6c0-0.3,0-0.6,0.2-0.9C98,85.4,98.2,85.3,98.5,85.4z"
				/>
			<path class="st1" d="M212.6,70.6c-2.1-0.9-4.4-1.4-6.7-1.7c-3.4-0.4-6.8-0.6-10.2-0.6c-9.8,0-18.4,2.1-25.5,6.2
				c-7.1,4.1-12.8,10.2-16.6,17.5c-3.9,7.4-5.8,16.2-5.8,26c-0.1,5.9,0.7,11.8,2.2,17.6c1.4,4.9,3.5,9.5,6.4,13.7
				c2.7,3.9,6,7.2,9.8,9.9c3.8,2.7,8.1,4.8,12.7,6c4.7,1.3,9.7,2,14.6,2c3.5,0,6.9-0.2,10.3-0.7c2.8-0.3,5.5-1,8.1-2
				c1-0.5,1.6-1.5,1.5-2.7v-14.9c0.1-0.5-0.1-1.1-0.5-1.5c-0.3-0.2-0.8-0.5-1.6,0.1c-2.2,0.8-4.6,1.4-7,1.7
				c-2.9,0.3-5.8,0.4-8.7,0.4c-2.6,0-5.3-0.4-7.8-1.1c-2.7-0.7-5.2-1.8-7.6-3.2c-2.5-1.5-4.6-3.5-6.3-5.8c-1.9-2.6-3.4-5.5-4.4-8.6
				c-1.1-3.8-1.7-7.7-1.6-11.7c-0.1-5.5,1-11,3.3-16c2.1-4.3,5.3-8,9.4-10.5c4.4-2.6,9.5-3.9,14.6-3.8c3.1,0,6.3,0.2,9.4,0.8
				c2.5,0.4,4.9,1.2,7.2,2.4c0.4,0.2,0.9,0.2,1.3,0c0.4-0.4,0.7-0.9,0.6-1.5V73C213.8,72,213.4,71.1,212.6,70.6z"/>
		</g>
	</g>
</g>
</svg>
