<?xml version="1.0" encoding="utf-8"?>
<!-- Generator: Adobe Illustrator 24.1.2, SVG Export Plug-In . SVG Version: 6.00 Build 0)  -->
<svg version="1.1" id="Layer_1" xmlns="http://www.w3.org/2000/svg" xmlns:xlink="http://www.w3.org/1999/xlink" x="0px" y="0px"
	 width="32px" height="31.2px" viewBox="0 0 32 31.2" enable-background="new 0 0 32 31.2" xml:space="preserve">
<g>
	<path fill="#001E36" d="M5.7,0h20.7C29.5,0,32,2.5,32,5.7v19.9c0,3.1-2.5,5.7-5.7,5.7H5.7c-3.1,0-5.7-2.5-5.7-5.7V5.7
		C0,2.5,2.5,0,5.7,0z"/>
	<path fill="#31A8FF" d="M11.3,16.6v5.3l-0.1,0.2h0H8.5l-0.1,0l0-0.2V8.1c0-0.2,0.1-0.3,0.2-0.3H17l0.1,0c0,0,0.1,0.1,0.1,0.3
		l0.2,2.3l0,0.1l-0.1,0.1h-6v3.3h5.4c0.1,0,0.2,0.1,0.2,0.2v2.4l-0.1,0.2h0H11.3z"/>
	<path fill="#31A8FF" d="M18.7,11.4h2.3c0.1,0,0.2,0.1,0.3,0.2c0.1,0.1,0.1,0.2,0.1,0.3c0,0.1,0.1,0.3,0.1,0.4c0,0.1,0,0.3,0,0.5
		c0.4-0.5,0.9-0.9,1.4-1.1c0.6-0.3,1.3-0.5,2-0.5c0.1,0,0.2,0.1,0.2,0.1v0V14c0,0.1-0.1,0.2-0.2,0.2c-0.9-0.1-1.7,0.1-2.5,0.5
		c-0.3,0.1-0.5,0.3-0.7,0.5v6.8c0,0.1-0.1,0.2-0.2,0.2h-2.6c-0.1,0-0.2-0.1-0.2-0.2v-0.1v-7.4c0-0.3,0-0.6,0-1s0-0.7,0-1
		c0-0.3,0-0.6-0.1-0.9L18.7,11.4L18.7,11.4z"/>
</g>
</svg>
