<?xml version="1.0" encoding="utf-8"?>
<!-- Generator: Adobe Illustrator 24.3.0, SVG Export Plug-In . SVG Version: 6.00 Build 0)  -->
<svg version="1.1" id="Layer_1" xmlns="http://www.w3.org/2000/svg" xmlns:xlink="http://www.w3.org/1999/xlink" x="0px" y="0px"
	 viewBox="0 0 22 22" style="enable-background:new 0 0 22 22;" xml:space="preserve">
<style type="text/css">
	.st0{fill:#B3B3B3;}
</style>
<g id="i_c_o_n_s">
	<path class="st0" d="M20,4H2C1.7,4,1.5,4.2,1.5,4.5v13C1.5,17.8,1.7,18,2,18h18c0.3,0,0.5-0.2,0.5-0.5v-13C20.5,4.2,20.3,4,20,4z
		 M18,16.5H3.5v-11H18V16.5z M19.3,11.9c-0.5,0-0.9-0.4-0.9-0.9s0.4-0.8,0.9-0.8c0.5,0,0.9,0.4,0.9,0.8
		C20.2,11.5,19.8,11.8,19.3,11.9z"/>
</g>
</svg>
