<?xml version="1.0" encoding="utf-8"?>
<!-- Generator: Adobe Illustrator 24.3.0, SVG Export Plug-In . SVG Version: 6.00 Build 0)  -->
<svg version="1.1" id="Layer_1" xmlns="http://www.w3.org/2000/svg" xmlns:xlink="http://www.w3.org/1999/xlink" x="0px" y="0px"
	 viewBox="0 0 22 22" style="enable-background:new 0 0 22 22;" xml:space="preserve">
<style type="text/css">
	.st0{fill:#B3B3B3;}
</style>
<g id="i_c_o_n_s">
	<path class="st0" d="M15.5,2h-9C6.2,2,6,2.2,6,2.5v17C6,20,6.2,20,6.5,20h9c0.3,0,0.5-0.2,0.5-0.5v-17C16,2.2,15.8,2,15.5,2z
		 M11,2.2c0.4,0,0.8,0.4,0.8,0.8S11.4,3.8,11,3.8S10.2,3.4,10.2,3S10.6,2.2,11,2.2L11,2.2z M14.5,18h-7V4h7V18z"/>
</g>
</svg>
