<?xml version="1.0" encoding="utf-8"?>
<!-- Generator: Adobe Illustrator 24.3.0, SVG Export Plug-In . SVG Version: 6.00 Build 0)  -->
<svg version="1.1" id="Layer_1" xmlns="http://www.w3.org/2000/svg" xmlns:xlink="http://www.w3.org/1999/xlink" x="0px" y="0px"
	 viewBox="0 0 22 22" style="enable-background:new 0 0 22 22;" xml:space="preserve">
<style type="text/css">
	.st0{fill:#B3B3B3;}
</style>
<g id="i_c_o_n_s">
	<path class="st0" d="M10.5,12.5H4v-9h12v1h2v-2C18,2.2,17.8,2,17.5,2h-15C2.2,2,2,2.2,2,2.5v11C2,13.8,2.2,14,2.5,14h8V12.5z
		 M3,8.7C2.6,8.7,2.3,8.4,2.3,8c0-0.4,0.3-0.7,0.7-0.7S3.7,7.6,3.7,8l0,0C3.7,8.4,3.4,8.7,3,8.7z"/>
	<path class="st0" d="M19.5,6H13c-0.6,0-1,0.4-1,1v13c0,0.6,0.4,1,1,1h6.5c0.6,0,1-0.4,1-1V7C20.5,6.4,20.1,6,19.5,6z M16.2,6.2
		c0.4,0,0.7,0.3,0.7,0.7c0,0.4-0.3,0.7-0.7,0.7c-0.4,0-0.7-0.3-0.7-0.7l0,0C15.6,6.5,15.9,6.2,16.2,6.2z M19,19.5h-5.5V7.8H19V19.5z
		"/>
</g>
</svg>
