<?xml version="1.0" encoding="utf-8"?>
<!-- Generator: Adobe Illustrator 24.1.0, SVG Export Plug-In . SVG Version: 6.00 Build 0)  -->
<svg version="1.1" id="Layer_1" xmlns="http://www.w3.org/2000/svg" xmlns:xlink="http://www.w3.org/1999/xlink" x="0px" y="0px"
	 viewBox="0 0 240 234" style="enable-background:new 0 0 240 234;" xml:space="preserve">
<style type="text/css">
	.st0{fill:#000B1D;}
	.st1{fill:#FFFFFF;}
</style>
<path class="st0" d="M42.5,0h155C221,0,240,19,240,42.5v149c0,23.5-19,42.5-42.5,42.5h-155C19,234,0,215,0,191.5v-149
	C0,19,19,0,42.5,0z"/>
<path class="st1" d="M89.2,167c-5.5,0.1-11-0.5-16.3-1.5c-4.2-0.8-8.4-2.1-12.3-3.9c-0.9-0.4-1.3-1.3-1.3-2.7v-19.2
	c0-0.3,0.1-0.7,0.4-0.9c0.3-0.2,0.7-0.1,1,0.1c4.5,2.8,9.3,4.9,14.3,6.3c4.8,1.4,9.8,2.1,14.8,2.1c6.1,0,10.5-0.9,13.1-2.8
	c2.4-1.5,3.9-4.1,3.9-7c0-1.7-0.4-3.4-1.3-4.9c-1.2-1.7-2.7-3.2-4.5-4.3c-2.8-1.7-5.8-3.2-8.9-4.3l-8.1-3.4
	c-6.5-2.8-11.7-5.8-15.4-8.9c-3.4-2.7-6-6.2-7.6-10.2c-1.4-3.8-2.1-7.7-2.1-11.8c-0.2-11.6,6.6-22.3,17.2-27
	c5.7-2.7,12.8-4.1,21.3-4.1c4.8,0,9.6,0.3,14.4,1c3.7,0.4,7.3,1.5,10.7,3.1c0.7,0.4,1.2,1.2,1.1,2.1V83c0,0.3-0.2,0.5-0.4,0.7
	c-0.3,0.3-0.6,0.2-1-0.1c-3.6-1.8-7.4-3.2-11.3-4c-4.4-1-8.9-1.5-13.4-1.4c-2.7,0-5.3,0.2-7.9,0.8c-1.8,0.4-3.6,1.1-5.2,2
	c-1.3,0.7-2.3,1.8-3,3.1c-0.6,1.2-1,2.5-1,3.8c0,1.6,0.5,3.3,1.4,4.6c1.3,1.7,3,3,4.8,4c3,1.7,6.1,3.3,9.3,4.7l6,2.3
	c7.1,2.9,12.6,6,16.6,9.3c3.6,2.8,6.5,6.5,8.4,10.6c1.6,3.9,2.4,8.1,2.4,12.3c0.1,6-1.7,11.8-5.1,16.7c-3.6,4.9-8.5,8.7-14.1,11
	C104.5,165.7,97.4,167,89.2,167z"/>
<path class="st1" d="M183.9,149.4v13.2c0,1.2-0.4,1.9-1.3,2.1c-2.1,0.7-4.3,1.2-6.4,1.6c-2.6,0.5-5.1,0.7-7.7,0.6
	c-7,0-12.5-1.8-16.4-5.5s-6-9.5-6-17.5v-40.1h-9.7c-0.9,0-1.3-0.5-1.3-1.4l0.1-15.9c0-0.9,0.5-1.3,1.4-1.3h9.7
	c0.1-1.8,0.1-3.8,0.3-6.2s0.4-4.8,0.6-7.2s0.5-4.4,0.7-5.9c0.1-0.3,0.3-0.6,0.5-0.9s0.5-0.5,0.8-0.6l19.2-2.4c0.3-0.1,0.5-0.1,0.8,0
	c0.2,0.1,0.3,0.4,0.3,1c-0.2,2.5-0.4,5.8-0.5,10.1c-0.1,4.2-0.1,8.2-0.2,12.2H183c0.6,0,1,0.4,1,1.3l-0.1,16.2
	c0.1,0.5-0.3,1-0.8,1.1h-14.2v34.7c0,3.6,0.4,6.3,1.6,7.8s3.5,2.3,6.8,2.3c1,0,1.9,0,2.7-0.1s1.7-0.1,2.6-0.2
	c0.3-0.1,0.6-0.1,0.9,0.1C183.8,148.6,183.9,148.9,183.9,149.4z"/>
</svg>
